<?xml version="1.0" standalone="no"?>
<!DOCTYPE svg PUBLIC "-//W3C//DTD SVG 20010904//EN"
 "http://www.w3.org/TR/2001/REC-SVG-20010904/DTD/svg10.dtd">
<svg version="1.0" xmlns="http://www.w3.org/2000/svg"
 width="296.000000pt" height="296.000000pt" viewBox="0 0 296.000000 296.000000"
 preserveAspectRatio="xMidYMid meet">
<metadata>
Created by potrace 1.14, written by Peter Selinger 2001-2017
</metadata>
<g transform="translate(0.000000,296.000000) scale(0.100000,-0.100000)"
fill="#000000" stroke="none">
<path d="M841 2320 c53 -75 215 -315 217 -321 2 -3 -34 -60 -79 -125 -44 -66
-97 -144 -117 -174 -21 -30 -39 -57 -42 -60 -3 -3 -55 -78 -115 -168 -60 -89
-112 -159 -115 -155 -13 14 -165 238 -188 274 -38 62 -37 62 -227 63 -96 1
-175 0 -175 -1 0 0 50 -75 111 -164 61 -90 113 -168 116 -174 4 -11 -10 -32
-148 -235 -36 -52 -68 -100 -71 -105 -4 -7 52 -11 173 -10 l180 0 86 125 c47
69 97 144 112 167 14 23 30 41 35 40 9 -3 37 -43 269 -384 65 -95 136 -200
159 -233 l41 -60 179 0 c141 0 178 3 172 12 -5 7 -31 47 -59 88 -28 41 -96
140 -150 220 -54 80 -132 194 -172 253 -43 63 -72 115 -69 123 5 14 156 239
183 274 6 8 51 74 99 145 48 72 107 158 131 192 23 35 43 65 43 68 0 3 -52 82
-116 175 l-115 170 -181 0 c-178 0 -180 0 -167 -20z"/>
<path d="M1641 2175 c62 -91 117 -169 123 -173 11 -7 335 -11 348 -5 5 2 -43
79 -106 171 l-114 167 -181 3 -182 2 112 -165z"/>
<path d="M2130 1990 c0 -3 17 -30 38 -60 21 -30 91 -134 157 -230 65 -96 152
-224 193 -283 l74 -108 -83 -122 c-97 -143 -199 -294 -304 -446 -41 -61 -75
-112 -75 -115 0 -3 80 -6 178 -6 l177 0 104 153 c57 83 162 238 233 343 l130
192 -132 193 c-72 107 -177 262 -234 344 l-102 150 -177 0 c-97 0 -177 -2
-177 -5z"/>
<path d="M2149 1491 c-118 -37 -170 -153 -116 -257 32 -61 110 -104 179 -98
120 12 194 154 138 264 -36 70 -131 113 -201 91z"/>
<path d="M1468 1270 c-40 -58 -91 -133 -115 -168 -24 -35 -43 -65 -43 -68 0
-2 80 -4 178 -4 l177 0 55 83 c30 45 58 84 63 85 4 2 7 8 7 13 0 5 22 40 48
77 27 37 51 72 54 77 4 7 -56 10 -173 10 l-180 0 -71 -105z"/>
</g>
</svg>
